<html>
<head>
<meta charset="UTF-8">
<meta name="viewport" content="width=device-width, initial-scale=1.0"/>

<style>
.comment
{
    padding-left: 20px;
    margin-top: 4px;
    margin-right: 4px;
    margin-bottom: 4px;
    border: 2px #000 solid;
}
.submission
{
    border: 4px #00f solid;
    padding-left: 20px;
}
.hidden
{
    display: none;
}
</style>
</head>
<body><div class="submission" id="t3_5x2a7r">
    <p class="userinfo">
        <a href="https://www.reddit.com/u/jodorowsthesky">jodorowsthesky</a>
        <span class="score"> | 29 points</span>
        <span class="timestamp"> | Mar 02 2017 09:21:35</span>
    </p>
    <strong>[MOVIE] O Brother, Where Art Thou? (2000) [1080p][x264][1.45GB]</strong>
    <p><p>.nz/#!eJoigYxb!8xxTxdPXlpBb2pjO3UnKjet0ZLsd29gh-v1hjKtgsUE  </p>
<pre><code>Format                                   : MPEG-4
Format profile                           : Base Media
Codec ID                                 : isom (isom/avc1)
File size                                : 1.45 GiB
Duration                                 : 1 h 47 min
Overall bit rate mode                    : Variable
Overall bit rate                         : 1 942 kb/s
Encoded date                             : UTC 2012-08-12 11:41:51
Tagged date                              : UTC 2012-08-12 11:41:51

Video
ID                                       : 1
Format                                   : AVC
Format/Info                              : Advanced Video Codec
Format profile                           : High@L4
Format settings, CABAC                   : Yes
Format settings, ReFrames                : 5 frames
Codec ID                                 : avc1
Codec ID/Info                            : Advanced Video Coding
Duration                                 : 1 h 47 min
Bit rate                                 : 1 842 kb/s
Maximum bit rate                         : 10.1 Mb/s
Width                                    : 1 920 pixels
Height                                   : 824 pixels
Display aspect ratio                     : 2.35:1
Frame rate mode                          : Constant
Frame rate                               : 23.976 (24000/1001) FPS
Color space                              : YUV
Chroma subsampling                       : 4:2:0
Bit depth                                : 8 bits
Scan type                                : Progressive
Bits/(Pixel*Frame)                       : 0.049
Stream size                              : 1.38 GiB (95%)
Writing library                          : x264 core 125 r2200 999b753
Encoding settings                        : cabac=1 / ref=5 / deblock=1:0:0 / analyse=0x3:0x133 / me=umh / subme=9 / psy=1 / psy_rd=1.00:0.00 / mixed_ref=1 / me_range=16 / chroma_me=1 / trellis=2 / 8x8dct=1 / cqm=0 / deadzone=21,11 / fast_pskip=1 / chroma_qp_offset=-2 / threads=12 / lookahead_threads=2 / sliced_threads=0 / nr=0 / decimate=1 / interlaced=0 / bluray_compat=0 / constrained_intra=0 / bframes=3 / b_pyramid=2 / b_adapt=2 / b_bias=0 / direct=3 / weightb=1 / open_gop=0 / weightp=2 / keyint=240 / keyint_min=23 / scenecut=40 / intra_refresh=0 / rc_lookahead=60 / rc=2pass / mbtree=1 / bitrate=1842 / ratetol=1.0 / qcomp=0.60 / qpmin=10 / qpmax=51 / qpstep=4 / cplxblur=20.0 / qblur=0.5 / ip_ratio=1.40 / aq=1:1.00
Encoded date                             : UTC 2012-08-12 11:41:51
Tagged date                              : UTC 2012-08-12 11:43:10

Audio
ID                                       : 2
Format                                   : AAC
Format/Info                              : Advanced Audio Codec
Format profile                           : LC
Codec ID                                 : 40
Duration                                 : 1 h 47 min
Bit rate mode                            : Variable
Bit rate                                 : 96.0 kb/s
Maximum bit rate                         : 167 kb/s
Channel(s)                               : 2 channels
Channel positions                        : Front: L R
Sampling rate                            : 48.0 kHz
Frame rate                               : 46.875 FPS (1024 spf)
Compression mode                         : Lossy
Stream size                              : 73.6 MiB (5%)
Language                                 : English
Encoded date                             : UTC 2012-08-12 11:43:07
Tagged date                              : UTC 2012-08-12 11:43:10
</code></pre></p>
    <p class="toolbar">
        <a href="https://www.reddit.com/r/megalinks/comments/5x2a7r">permalink</a>
    </p>
</div>
<div class="comment" id="t1_deeo3t8">
    <p class="userinfo">
        <a
        class="toggle_hide_button"
        href="javascript:void(0)"
        onclick="toggle_collapse(this.parentElement.parentElement)">[-]
        </a>
        <a href="https://www.reddit.com/u/boltrop">boltrop</a>
        <span class="score"> | 2 points</span>
        <span class="timestamp"> | Mar 02 2017 09:23:07</span>
    </p>
    <div class="collapsible">
        <h3><a href="https://images-na.ssl-images-amazon.com/images/M/MV5BYmFhNjMwM2EtNGViMy00MTZmLWIzNTYtYzg1NWYwNTE2MGJhXkEyXkFqcGdeQXVyNTI4MjkwNjA@._V1_.jpg">O Brother, Where Art Thou?</a> (2000)</h3>
<p><strong>Genre</strong>: Adventure, Comedy, Crime, Music</p>
<p><strong>Rating</strong>:  7.8 (234543 votes)</p>
<p><strong>Certification</strong>: TV-14</p>
<p><strong>Runtime</strong>: 107 min</p>
<hr>
<blockquote>
<p><strong>Director(s)</strong>: <a href="https://www.imdb.com/name/nm0001054/">Joel Coen</a></p>
<p><strong>Writer(s)</strong>: <a href="https://www.imdb.com/name/nm0392955/">Homer</a>, <a href="https://www.imdb.com/name/nm0001053/">Ethan Coen</a></p>
<p><strong>Cast</strong>: <a href="https://www.imdb.com/name/nm0000123/">George Clooney</a>, <a href="https://www.imdb.com/name/nm0001806/">John Turturro</a>, <a href="https://www.imdb.com/name/nm0625789/">Tim Blake Nelson</a>, <a href="https://www.imdb.com/name/nm0000422/">John Goodman</a></p>
<p><strong>Plot</strong>: In the deep south during the 1930s, three escaped convicts search for hidden treasure while a relentless lawman pursues them.</p>
</blockquote>
<hr>
<p>^This ^summary ^is ^taken ^from <a href="https://www.imdb.com/title/tt0190590/">^imdb.com</a> ^| ^For ^feedback ^or ^suggestions ^contact <a href="http://www.reddit.com/message/compose/?to=indigo6alpha">^/u/indigo6alpha</a></p>
        <p class="toolbar">
            <a href="https://www.reddit.com/r/megalinks/comments/5x2a7r/_/deeo3t8">permalink</a>
        </p>
        
    </div>
</div>

<div class="comment" id="t1_deeo3s0">
    <p class="userinfo">
        <a
        class="toggle_hide_button"
        href="javascript:void(0)"
        onclick="toggle_collapse(this.parentElement.parentElement)">[-]
        </a>
        <a href="https://www.reddit.com/u/SubZorro">SubZorro</a>
        <span class="score"> | 1 points</span>
        <span class="timestamp"> | Mar 02 2017 09:23:05</span>
    </p>
    <div class="collapsible">
        <h5>Subtitles for this movie:</h5>
<hr>
<blockquote>
<ul>
<li>
<p><strong>O Brother, Where Art Thou?</strong> - <code>1 CD</code> - <a href="http://dl.opensubtitles.org/en/download/vrf-1bb29fb8/sub/106480">Download Subtitle</a></p>
</li>
<li>
<p><strong>O Brother, Where Art Thou? (2000)</strong> - <code>1 CD</code> - <a href="http://dl.opensubtitles.org/en/download/vrf-3b420684/sub/73219">Download Subtitle</a></p>
</li>
</ul>
</blockquote>
<hr>
<p>^This ^list ^of ^subtitles ^are ^taken ^from <a href="http://www.opensubtitles.org">^opensubtitles.org</a> ^| ^For ^feedback ^or ^suggestions ^contact <a href="http://www.reddit.com/message/compose/?to=indigo6alpha">^/u/indigo6alpha</a></p>
        <p class="toolbar">
            <a href="https://www.reddit.com/r/megalinks/comments/5x2a7r/_/deeo3s0">permalink</a>
        </p>
        
    </div>
</div>
</body>

<script>
function toggle_collapse(comment_div)
{
    var button = comment_div.getElementsByClassName("toggle_hide_button")[0];
    var collapsible = comment_div.getElementsByClassName("collapsible")[0];
    if (collapsible.classList.contains("hidden"))
    {
        collapsible.classList.remove("hidden");
        button.innerText = "[-]";
    }
    else
    {
        collapsible.classList.add("hidden");
        button.innerText = "[+]";
    }
}
</script>
</html>
